<mxfile host="app.diagrams.net" agent="Mozilla/5.0 (Windows NT 10.0; Win64; x64) AppleWebKit/537.36 (KHTML, like Gecko) Chrome/136.0.0.0 Safari/537.36 Edg/136.0.0.0" version="27.1.3">
  <diagram name="第 1 页" id="1fiDwTHrNMZpix3zNA36">
    <mxGraphModel dx="1158" dy="783" grid="1" gridSize="10" guides="1" tooltips="1" connect="1" arrows="1" fold="1" page="1" pageScale="1" pageWidth="827" pageHeight="1169" math="0" shadow="0">
      <root>
        <mxCell id="0" />
        <mxCell id="1" parent="0" />
        <mxCell id="QYo9lDrNAoCQKma_m_w6-10" value="" style="rounded=1;whiteSpace=wrap;html=1;fillColor=none;dashed=1;dashPattern=12 12;" vertex="1" parent="1">
          <mxGeometry x="200" y="250" width="430" height="340" as="geometry" />
        </mxCell>
        <mxCell id="QYo9lDrNAoCQKma_m_w6-1" value="" style="rounded=1;whiteSpace=wrap;html=1;fillColor=none;dashed=1;dashPattern=12 12;fontSize=16;" vertex="1" parent="1">
          <mxGeometry x="41" y="250" width="140" height="340" as="geometry" />
        </mxCell>
        <mxCell id="QYo9lDrNAoCQKma_m_w6-2" value="数据集" style="text;html=1;align=center;verticalAlign=middle;whiteSpace=wrap;rounded=0;fontSize=16;" vertex="1" parent="1">
          <mxGeometry x="81" y="220" width="60" height="30" as="geometry" />
        </mxCell>
        <mxCell id="QYo9lDrNAoCQKma_m_w6-7" style="edgeStyle=orthogonalEdgeStyle;rounded=0;orthogonalLoop=1;jettySize=auto;html=1;exitX=0.5;exitY=1;exitDx=0;exitDy=0;entryX=0.5;entryY=0;entryDx=0;entryDy=0;fontSize=16;" edge="1" parent="1" source="QYo9lDrNAoCQKma_m_w6-3" target="QYo9lDrNAoCQKma_m_w6-5">
          <mxGeometry relative="1" as="geometry" />
        </mxCell>
        <mxCell id="QYo9lDrNAoCQKma_m_w6-8" value="仿真化处理" style="edgeLabel;html=1;align=center;verticalAlign=middle;resizable=0;points=[];fontSize=16;" vertex="1" connectable="0" parent="QYo9lDrNAoCQKma_m_w6-7">
          <mxGeometry x="-0.025" y="2" relative="1" as="geometry">
            <mxPoint as="offset" />
          </mxGeometry>
        </mxCell>
        <mxCell id="QYo9lDrNAoCQKma_m_w6-3" value="原始数据集" style="rounded=0;whiteSpace=wrap;html=1;fontSize=16;" vertex="1" parent="1">
          <mxGeometry x="51" y="280" width="120" height="30" as="geometry" />
        </mxCell>
        <mxCell id="QYo9lDrNAoCQKma_m_w6-5" value="仿真化数据集" style="rounded=0;whiteSpace=wrap;html=1;fontSize=16;" vertex="1" parent="1">
          <mxGeometry x="51" y="402.5" width="120" height="30" as="geometry" />
        </mxCell>
        <mxCell id="QYo9lDrNAoCQKma_m_w6-11" value="同源异构数据集" style="text;html=1;align=center;verticalAlign=middle;whiteSpace=wrap;rounded=0;fontSize=16;" vertex="1" parent="1">
          <mxGeometry x="295" y="220" width="260" height="30" as="geometry" />
        </mxCell>
        <mxCell id="QYo9lDrNAoCQKma_m_w6-37" style="edgeStyle=orthogonalEdgeStyle;rounded=0;orthogonalLoop=1;jettySize=auto;html=1;exitX=1;exitY=0.5;exitDx=0;exitDy=0;entryX=0;entryY=0.5;entryDx=0;entryDy=0;" edge="1" parent="1" source="QYo9lDrNAoCQKma_m_w6-14" target="QYo9lDrNAoCQKma_m_w6-22">
          <mxGeometry relative="1" as="geometry" />
        </mxCell>
        <mxCell id="QYo9lDrNAoCQKma_m_w6-14" value="直接使用原始时域信号" style="rounded=0;whiteSpace=wrap;html=1;fontSize=16;" vertex="1" parent="1">
          <mxGeometry x="228" y="280" width="180" height="25" as="geometry" />
        </mxCell>
        <mxCell id="QYo9lDrNAoCQKma_m_w6-15" style="edgeStyle=orthogonalEdgeStyle;rounded=0;orthogonalLoop=1;jettySize=auto;html=1;exitX=0.5;exitY=1;exitDx=0;exitDy=0;fontSize=16;" edge="1" parent="1" source="QYo9lDrNAoCQKma_m_w6-5" target="QYo9lDrNAoCQKma_m_w6-5">
          <mxGeometry relative="1" as="geometry" />
        </mxCell>
        <mxCell id="QYo9lDrNAoCQKma_m_w6-18" style="edgeStyle=orthogonalEdgeStyle;rounded=0;orthogonalLoop=1;jettySize=auto;html=1;exitX=0.5;exitY=1;exitDx=0;exitDy=0;entryX=0.5;entryY=0;entryDx=0;entryDy=0;fontSize=16;" edge="1" parent="1" target="QYo9lDrNAoCQKma_m_w6-20" source="QYo9lDrNAoCQKma_m_w6-5">
          <mxGeometry relative="1" as="geometry">
            <mxPoint x="111" y="415" as="sourcePoint" />
          </mxGeometry>
        </mxCell>
        <mxCell id="QYo9lDrNAoCQKma_m_w6-19" value="信号分割保存" style="edgeLabel;html=1;align=center;verticalAlign=middle;resizable=0;points=[];fontSize=16;" vertex="1" connectable="0" parent="QYo9lDrNAoCQKma_m_w6-18">
          <mxGeometry x="-0.025" y="2" relative="1" as="geometry">
            <mxPoint as="offset" />
          </mxGeometry>
        </mxCell>
        <mxCell id="QYo9lDrNAoCQKma_m_w6-20" value="分割后仿真数据集" style="rounded=0;whiteSpace=wrap;html=1;fontSize=14;" vertex="1" parent="1">
          <mxGeometry x="51" y="526" width="120" height="30" as="geometry" />
        </mxCell>
        <mxCell id="QYo9lDrNAoCQKma_m_w6-47" style="edgeStyle=orthogonalEdgeStyle;rounded=0;orthogonalLoop=1;jettySize=auto;html=1;exitX=1;exitY=0.5;exitDx=0;exitDy=0;entryX=0;entryY=0.5;entryDx=0;entryDy=0;" edge="1" parent="1" source="QYo9lDrNAoCQKma_m_w6-22" target="QYo9lDrNAoCQKma_m_w6-40">
          <mxGeometry relative="1" as="geometry" />
        </mxCell>
        <mxCell id="QYo9lDrNAoCQKma_m_w6-22" value="时域数据集" style="rounded=0;whiteSpace=wrap;html=1;fontSize=16;" vertex="1" parent="1">
          <mxGeometry x="504" y="280" width="100" height="25" as="geometry" />
        </mxCell>
        <mxCell id="QYo9lDrNAoCQKma_m_w6-34" style="edgeStyle=orthogonalEdgeStyle;rounded=0;orthogonalLoop=1;jettySize=auto;html=1;exitX=1;exitY=0.5;exitDx=0;exitDy=0;entryX=0;entryY=0.5;entryDx=0;entryDy=0;" edge="1" parent="1" source="QYo9lDrNAoCQKma_m_w6-23" target="QYo9lDrNAoCQKma_m_w6-26">
          <mxGeometry relative="1" as="geometry" />
        </mxCell>
        <mxCell id="QYo9lDrNAoCQKma_m_w6-23" value="" style="rounded=1;whiteSpace=wrap;html=1;fillColor=none;dashed=1;dashPattern=12 12;" vertex="1" parent="1">
          <mxGeometry x="220" y="372.5" width="196" height="85" as="geometry" />
        </mxCell>
        <mxCell id="QYo9lDrNAoCQKma_m_w6-31" style="edgeStyle=orthogonalEdgeStyle;rounded=0;orthogonalLoop=1;jettySize=auto;html=1;exitX=0.5;exitY=1;exitDx=0;exitDy=0;entryX=0.5;entryY=0;entryDx=0;entryDy=0;" edge="1" parent="1" source="QYo9lDrNAoCQKma_m_w6-24" target="QYo9lDrNAoCQKma_m_w6-25">
          <mxGeometry relative="1" as="geometry" />
        </mxCell>
        <mxCell id="QYo9lDrNAoCQKma_m_w6-24" value="希尔伯特变换" style="rounded=0;whiteSpace=wrap;html=1;fontSize=16;" vertex="1" parent="1">
          <mxGeometry x="228" y="382.5" width="180" height="25" as="geometry" />
        </mxCell>
        <mxCell id="QYo9lDrNAoCQKma_m_w6-25" value="傅里叶变换" style="rounded=0;whiteSpace=wrap;html=1;fontSize=16;" vertex="1" parent="1">
          <mxGeometry x="228" y="422.5" width="180" height="25" as="geometry" />
        </mxCell>
        <mxCell id="QYo9lDrNAoCQKma_m_w6-46" style="edgeStyle=orthogonalEdgeStyle;rounded=0;orthogonalLoop=1;jettySize=auto;html=1;exitX=1;exitY=0.5;exitDx=0;exitDy=0;entryX=0;entryY=0.5;entryDx=0;entryDy=0;" edge="1" parent="1" source="QYo9lDrNAoCQKma_m_w6-26" target="QYo9lDrNAoCQKma_m_w6-43">
          <mxGeometry relative="1" as="geometry" />
        </mxCell>
        <mxCell id="QYo9lDrNAoCQKma_m_w6-26" value="频域数据集" style="rounded=0;whiteSpace=wrap;html=1;fontSize=16;" vertex="1" parent="1">
          <mxGeometry x="504" y="402.5" width="100" height="25" as="geometry" />
        </mxCell>
        <mxCell id="QYo9lDrNAoCQKma_m_w6-36" style="edgeStyle=orthogonalEdgeStyle;rounded=0;orthogonalLoop=1;jettySize=auto;html=1;exitX=1;exitY=0.5;exitDx=0;exitDy=0;" edge="1" parent="1" source="QYo9lDrNAoCQKma_m_w6-28" target="QYo9lDrNAoCQKma_m_w6-35">
          <mxGeometry relative="1" as="geometry" />
        </mxCell>
        <mxCell id="QYo9lDrNAoCQKma_m_w6-28" value="" style="rounded=1;whiteSpace=wrap;html=1;fillColor=none;dashed=1;dashPattern=12 12;" vertex="1" parent="1">
          <mxGeometry x="220" y="491" width="196" height="85" as="geometry" />
        </mxCell>
        <mxCell id="QYo9lDrNAoCQKma_m_w6-33" style="edgeStyle=orthogonalEdgeStyle;rounded=0;orthogonalLoop=1;jettySize=auto;html=1;exitX=0.5;exitY=1;exitDx=0;exitDy=0;entryX=0.5;entryY=0;entryDx=0;entryDy=0;" edge="1" parent="1" source="QYo9lDrNAoCQKma_m_w6-29" target="QYo9lDrNAoCQKma_m_w6-30">
          <mxGeometry relative="1" as="geometry" />
        </mxCell>
        <mxCell id="QYo9lDrNAoCQKma_m_w6-29" value="小波变换" style="rounded=0;whiteSpace=wrap;html=1;fontSize=16;" vertex="1" parent="1">
          <mxGeometry x="228" y="501" width="180" height="25" as="geometry" />
        </mxCell>
        <mxCell id="QYo9lDrNAoCQKma_m_w6-30" value="系数矩阵图像" style="rounded=0;whiteSpace=wrap;html=1;fontSize=16;" vertex="1" parent="1">
          <mxGeometry x="228" y="541" width="180" height="25" as="geometry" />
        </mxCell>
        <mxCell id="QYo9lDrNAoCQKma_m_w6-45" style="edgeStyle=orthogonalEdgeStyle;rounded=0;orthogonalLoop=1;jettySize=auto;html=1;exitX=1;exitY=0.5;exitDx=0;exitDy=0;entryX=0;entryY=0.5;entryDx=0;entryDy=0;" edge="1" parent="1" source="QYo9lDrNAoCQKma_m_w6-35" target="QYo9lDrNAoCQKma_m_w6-44">
          <mxGeometry relative="1" as="geometry" />
        </mxCell>
        <mxCell id="QYo9lDrNAoCQKma_m_w6-35" value="时频域数据集" style="rounded=0;whiteSpace=wrap;html=1;fontSize=16;" vertex="1" parent="1">
          <mxGeometry x="504" y="521" width="100" height="25" as="geometry" />
        </mxCell>
        <mxCell id="QYo9lDrNAoCQKma_m_w6-38" value="" style="rounded=1;whiteSpace=wrap;html=1;fillColor=none;dashed=1;dashPattern=12 12;fontSize=16;" vertex="1" parent="1">
          <mxGeometry x="650" y="250" width="140" height="340" as="geometry" />
        </mxCell>
        <mxCell id="QYo9lDrNAoCQKma_m_w6-39" value="卷积神经网络" style="text;html=1;align=center;verticalAlign=middle;whiteSpace=wrap;rounded=0;fontSize=16;" vertex="1" parent="1">
          <mxGeometry x="660" y="220" width="120" height="30" as="geometry" />
        </mxCell>
        <mxCell id="QYo9lDrNAoCQKma_m_w6-40" value="一维卷积&lt;div&gt;神经网络&lt;/div&gt;" style="rounded=0;whiteSpace=wrap;html=1;fontSize=16;" vertex="1" parent="1">
          <mxGeometry x="670" y="265" width="100" height="55" as="geometry" />
        </mxCell>
        <mxCell id="QYo9lDrNAoCQKma_m_w6-43" value="一维卷积&lt;div&gt;神经网络&lt;/div&gt;" style="rounded=0;whiteSpace=wrap;html=1;fontSize=16;" vertex="1" parent="1">
          <mxGeometry x="670" y="387.5" width="100" height="55" as="geometry" />
        </mxCell>
        <mxCell id="QYo9lDrNAoCQKma_m_w6-44" value="二维卷积&lt;div&gt;神经网络&lt;/div&gt;" style="rounded=0;whiteSpace=wrap;html=1;fontSize=16;" vertex="1" parent="1">
          <mxGeometry x="670" y="506" width="100" height="55" as="geometry" />
        </mxCell>
        <mxCell id="QYo9lDrNAoCQKma_m_w6-49" value="包络谱分析" style="text;html=1;align=center;verticalAlign=middle;whiteSpace=wrap;rounded=0;" vertex="1" parent="1">
          <mxGeometry x="238" y="342.5" width="160" height="30" as="geometry" />
        </mxCell>
      </root>
    </mxGraphModel>
  </diagram>
</mxfile>
